<?xml version="1.0" encoding="UTF-8" standalone="no"?>
<!-- Created with Inkscape (http://www.inkscape.org/) -->

<svg
   xmlns:dc="http://purl.org/dc/elements/1.1/"
   xmlns:cc="http://creativecommons.org/ns#"
   xmlns:rdf="http://www.w3.org/1999/02/22-rdf-syntax-ns#"
   xmlns:svg="http://www.w3.org/2000/svg"
   xmlns="http://www.w3.org/2000/svg"
   xmlns:sodipodi="http://sodipodi.sourceforge.net/DTD/sodipodi-0.dtd"
   xmlns:inkscape="http://www.inkscape.org/namespaces/inkscape"
   version="1.1"
   width="64"
   height="64"
   id="svg2997"
   inkscape:version="0.48.4 r9939"
   sodipodi:docname="health-eat.svg">
  <sodipodi:namedview
     pagecolor="#ffffff"
     bordercolor="#666666"
     borderopacity="1"
     objecttolerance="10"
     gridtolerance="10"
     guidetolerance="10"
     inkscape:pageopacity="0"
     inkscape:pageshadow="2"
     inkscape:window-width="1366"
     inkscape:window-height="744"
     id="namedview3905"
     showgrid="false"
     inkscape:zoom="7.375"
     inkscape:cx="18.083982"
     inkscape:cy="34.860684"
     inkscape:window-x="0"
     inkscape:window-y="24"
     inkscape:window-maximized="1"
     inkscape:current-layer="layer1" />
  <defs
     id="defs2999" />
  <metadata
     id="metadata3002">
    <rdf:RDF>
      <cc:Work
         rdf:about="">
        <dc:format>image/svg+xml</dc:format>
        <dc:type
           rdf:resource="http://purl.org/dc/dcmitype/StillImage" />
        <dc:title />
      </cc:Work>
    </rdf:RDF>
  </metadata>
  <g
     id="layer1">
    <path
       style="fill:#ffffff;stroke:#ffffff;stroke-width:1px;stroke-linecap:butt;stroke-linejoin:miter;stroke-opacity:1;fill-opacity:1"
       d="m 2.6846088,41.372583 0,20.61396 59.0613932,0 0,-15.532379 z"
       id="path4415"
       inkscape:connector-curvature="0" />
    <path
       d="M 16.625,42 21,23.875 9.75,12.75 25.632583,3.3232235 24.234835,2.3888643 l 3.125,-1.75000001 3.875,3.50000001 -2.5,1.625 L 27.315641,4.8825827 17.25,12.625 26.75,21 l 8.625,-8.875 8.5,4.125 -4.875,6.875 -1.3125,-0.59375 -2.25,2.75 L 32.75,24.25 l -1,1.625 9.625,4 10.75,-12 -1,-0.625 2.125,-2.625 5.15625,2.90625 -2.59375,2.5625 L 54.125,19.25 42.375,34 33.3125,31.5625 30.375,43.625"
       id="path4010"
       style="fill:#ffffff;stroke:#000000;stroke-width:1px;stroke-linecap:butt;stroke-linejoin:miter;stroke-opacity:1;fill-opacity:1" />
    <path
       d="m 45.78401,55.0625 a 12.22151,3.2000632 0 1 1 -24.44302,0 12.22151,3.2000632 0 1 1 24.44302,0 z"
       transform="translate(-0.61871843,0)"
       id="path4014"
       style="fill:#ffffff;fill-opacity:1;stroke:#000000;stroke-opacity:1" />
    <g
       transform="matrix(0.80772256,0,0,0.82546274,53.774708,19.346614)"
       id="g4034"
       style="fill:#ffffff">
      <path
         d="m -26.331762,35.057625 c -1.029675,-2.255893 -7.565602,-2.568461 -6.033874,4.693397 1.574427,7.464298 5.806976,4.054104 5.806976,4.054104 0,0 3.904792,3.455524 6.305528,-3.340174 2.591071,-7.33447 -3.904874,-8.791166 -6.07863,-5.407327 z"
         id="path4030"
         style="fill:#ffffff;stroke:#000000;stroke-width:0.95794725px;stroke-linecap:butt;stroke-linejoin:miter;stroke-opacity:1" />
      <path
         d="m -26.273573,34.606389 c 0,0 -0.500216,-1.804227 1.062284,-2.866727"
         id="path4032"
         style="fill:#ffffff;stroke:#000000;stroke-width:1px;stroke-linecap:butt;stroke-linejoin:miter;stroke-opacity:1" />
    </g>
    <path
       d="m 30.0625,5.0625001 3.375,3.125"
       id="path4046"
       style="fill:none;stroke:#000000;stroke-width:1px;stroke-linecap:butt;stroke-linejoin:miter;stroke-opacity:1" />
    <path
       d="m 32.5625,9.0937501 -1,-1.03125 1.5,-1.8125 1.21875,1.0625"
       id="path4048"
       style="fill:none;stroke:#000000;stroke-width:1px;stroke-linecap:butt;stroke-linejoin:miter;stroke-opacity:1" />
    <path
       d="m 52.481659,15.4527 c 0.08839,0 -6.076699,-4.507806 -6.076699,-4.507806 l -0.07747,0.805299"
       id="path4054"
       style="fill:none;stroke:#000000;stroke-width:1px;stroke-linecap:butt;stroke-linejoin:miter;stroke-opacity:1" />
    <path
       d="m 46.726401,11.467184 0.0061,0.755812"
       id="path4056"
       style="fill:none;stroke:#000000;stroke-width:1px;stroke-linecap:butt;stroke-linejoin:miter;stroke-opacity:1" />
    <path
       d="m 47.23516,12.011374 0.09375,0.75"
       id="path4056-7"
       style="fill:none;stroke:#000000;stroke-width:1px;stroke-linecap:butt;stroke-linejoin:miter;stroke-opacity:1" />
    <path
       d="m 47.806028,12.492512 0.09375,0.75"
       id="path4056-7-1"
       style="fill:none;stroke:#000000;stroke-width:1px;stroke-linecap:butt;stroke-linejoin:miter;stroke-opacity:1" />
    <path
       d="m 48.397096,12.913602 0.09375,0.75"
       id="path4056-7-1-5"
       style="fill:none;stroke:#000000;stroke-width:1px;stroke-linecap:butt;stroke-linejoin:miter;stroke-opacity:1" />
    <path
       d="m 49.164592,13.235527 0.109101,0.812091"
       id="path4056-7-1-5-4"
       style="fill:none;stroke:#000000;stroke-width:1.28285563px;stroke-linecap:butt;stroke-linejoin:miter;stroke-opacity:1" />
    <path
       d="m 36.239222,19.894215 a 1.5909903,1.5909903 0 1 1 -3.181981,0 1.5909903,1.5909903 0 1 1 3.181981,0 z"
       transform="matrix(0.3493161,0,0,0.3493161,24.899979,12.419417)"
       id="path4130"
       style="fill:#000000;fill-opacity:1;stroke:none" />
    <path
       d="M 2.3183149,41.179303 62.181685,46.195697"
       id="path4012"
       style="fill:none;stroke:#000000;stroke-width:1.05864871px;stroke-linecap:butt;stroke-linejoin:miter;stroke-opacity:1" />
  </g>
</svg>
