<?xml version="1.0" encoding="UTF-8" standalone="no"?>
<!-- Created with Inkscape (http://www.inkscape.org/) -->

<svg
   xmlns:dc="http://purl.org/dc/elements/1.1/"
   xmlns:cc="http://creativecommons.org/ns#"
   xmlns:rdf="http://www.w3.org/1999/02/22-rdf-syntax-ns#"
   xmlns:svg="http://www.w3.org/2000/svg"
   xmlns="http://www.w3.org/2000/svg"
   xmlns:sodipodi="http://sodipodi.sourceforge.net/DTD/sodipodi-0.dtd"
   xmlns:inkscape="http://www.inkscape.org/namespaces/inkscape"
   version="1.1"
   width="64"
   height="64"
   id="svg2997"
   inkscape:version="0.48.4 r9939"
   sodipodi:docname="health-sleep.svg">
  <sodipodi:namedview
     pagecolor="#ffffff"
     bordercolor="#666666"
     borderopacity="1"
     objecttolerance="10"
     gridtolerance="10"
     guidetolerance="10"
     inkscape:pageopacity="0"
     inkscape:pageshadow="2"
     inkscape:window-width="1366"
     inkscape:window-height="744"
     id="namedview3076"
     showgrid="false"
     inkscape:zoom="6.5959804"
     inkscape:cx="38.692678"
     inkscape:cy="33.309942"
     inkscape:window-x="0"
     inkscape:window-y="24"
     inkscape:window-maximized="1"
     inkscape:current-layer="layer1" />
  <defs
     id="defs2999" />
  <metadata
     id="metadata3002">
    <rdf:RDF>
      <cc:Work
         rdf:about="">
        <dc:format>image/svg+xml</dc:format>
        <dc:type
           rdf:resource="http://purl.org/dc/dcmitype/StillImage" />
        <dc:title />
      </cc:Work>
    </rdf:RDF>
  </metadata>
  <g
     id="layer1">
    <path
       d="m 2.7567369,37.356513 -0.1239162,22.23819 2.4542409,-0.358534 -0.163616,-3.226817 53.5024524,0.537803 -0.163617,3.764619 2.290626,-0.179268 1.636161,-43.024221 -2.617858,0 -0.981696,22.766984 -1.636161,-2.868282 -1.472544,0 0.446332,-7.313935 -6.908997,0.457259 -0.425654,2.121465 -3.340093,-0.269995 -0.610393,3.722154 -3.395793,0.386716 -3.464009,-5.954052 -27.9105747,1.459621 -2.9450891,5.137246 -1.8394766,-0.485297 0.1239162,-4.228167 -2.1550809,0.0435 z"
       id="path3910"
       style="fill:#ffffff;stroke:#000000;stroke-width:1.13511991999999995px;stroke-linecap:butt;stroke-linejoin:miter;stroke-opacity:1;fill-opacity:1" />
    <path
       d="m 46.481926,39.606368 -0.245425,2.778647"
       id="path3916"
       style="fill:none;stroke:#000000;stroke-width:1.13511992px;stroke-linecap:butt;stroke-linejoin:miter;stroke-opacity:1" />
    <path
       d="m 45.000942,40.149259 10.318236,-0.797037 0.168721,-2.296751"
       id="path3922"
       style="fill:none;stroke:#000000;stroke-width:1.13511992px;stroke-linecap:butt;stroke-linejoin:miter;stroke-opacity:1" />
    <path
       d="m 50.768995,32.0137 0.01695,1.837955"
       id="path3926"
       style="fill:none;stroke:#000000;stroke-width:1.13511992px;stroke-linecap:butt;stroke-linejoin:miter;stroke-opacity:1" />
    <path
       d="m 43.477764,18.885186 4.86992,-2.683592 -0.779026,5.503073 3.694072,-2.738606 0,0 0,0"
       id="path3930"
       style="fill:none;stroke:#000000;stroke-width:1.13511992px;stroke-linecap:butt;stroke-linejoin:miter;stroke-opacity:1" />
    <path
       d="m 48.522841,8.7810008 7.720702,-2.1117256 -4.303612,6.9690238 6.602372,-1.595363 0,0 0,0"
       id="path3930-1"
       style="fill:none;stroke:#000000;stroke-width:1.52399039px;stroke-linecap:butt;stroke-linejoin:miter;stroke-opacity:1" />
    <path
       d="m 42.466907,25.72184 2.82093,-1.99291 -0.696531,3.99742 3.733412,-2.640031 0,0 0,0"
       id="path3930-4"
       style="fill:none;stroke:#000000;stroke-width:0.85826141px;stroke-linecap:butt;stroke-linejoin:miter;stroke-opacity:1" />
  </g>
</svg>
