<?xml version="1.0" encoding="UTF-8" standalone="no"?>
<!-- Created with Inkscape (http://www.inkscape.org/) -->

<svg
   xmlns:dc="http://purl.org/dc/elements/1.1/"
   xmlns:cc="http://creativecommons.org/ns#"
   xmlns:rdf="http://www.w3.org/1999/02/22-rdf-syntax-ns#"
   xmlns:svg="http://www.w3.org/2000/svg"
   xmlns="http://www.w3.org/2000/svg"
   version="1.1"
   width="64"
   height="64"
   id="svg2997">
  <defs
     id="defs2999" />
  <metadata
     id="metadata3002">
    <rdf:RDF>
      <cc:Work
         rdf:about="">
        <dc:format>image/svg+xml</dc:format>
        <dc:type
           rdf:resource="http://purl.org/dc/dcmitype/StillImage" />
        <dc:title></dc:title>
      </cc:Work>
    </rdf:RDF>
  </metadata>
  <g
     id="layer1">
    <path
       d="m 34.105485,4.2970267 12.236175,1.339586 -0.01516,10.4287943 -2.26315,0 -1.659644,4.677177 -2.71578,-0.45263 -0.45263,3.922794 11.277147,0.150876 3.017534,-10.561367 -1.68553,-0.790993 1.284673,-4.8324932 1.685529,0.426743 0.577621,-2.539017 5.093198,0.239259 -1.302977,8.4459522 -1.578844,-0.195068 -3.319287,15.540298 -13.729777,-1.207013 -3.16841,13.880654 16.74731,1.056136 -4.375423,12.371888 3.470163,0.150876 -1.508766,3.470164 -7.69471,-0.45263 3.470163,-10.410491 -17.652571,-1.81052 -15.238544,8.599971 -6.4876979,-6.33682 -3.7719171,1.659643 -1.9613968,-4.224547 7.2420805,-3.470163 4.9789313,5.280683 10.41049,-9.354354 3.319287,-12.824517 -7.69471,-5.582437 -8.750847,4.5263 1.056137,1.508767 -4.6771785,2.112274 -0.7543834,-1.508767 -1.9613968,0.603506 -1.8105201,-4.07367 5.7333135,-3.319287 1.0561373,1.508767 11.919258,-6.940327 8.78945,5.733314 z"
       id="path3801"
       style="fill:#ffffff;fill-opacity:1;stroke:#000000;stroke-width:1px;stroke-linecap:butt;stroke-linejoin:miter;stroke-opacity:1" />
    <path
       d="m 44.508618,9.7598352 a 1.7350818,1.7350818 0 1 1 -3.470163,0 1.7350818,1.7350818 0 1 1 3.470163,0 z"
       transform="matrix(0.49025033,0,0,0.49025033,21.451983,6.9409979)"
       id="path3885"
       style="fill:#000000;fill-opacity:1;stroke:none" />
  </g>
</svg>
