<?xml version="1.0" encoding="UTF-8" standalone="no"?>
<!-- Created with Inkscape (http://www.inkscape.org/) -->

<svg
   xmlns:dc="http://purl.org/dc/elements/1.1/"
   xmlns:cc="http://creativecommons.org/ns#"
   xmlns:rdf="http://www.w3.org/1999/02/22-rdf-syntax-ns#"
   xmlns:svg="http://www.w3.org/2000/svg"
   xmlns="http://www.w3.org/2000/svg"
   xmlns:sodipodi="http://sodipodi.sourceforge.net/DTD/sodipodi-0.dtd"
   xmlns:inkscape="http://www.inkscape.org/namespaces/inkscape"
   width="64px"
   height="64px"
   id="svg2985"
   version="1.1"
   inkscape:version="0.48.4 r9939"
   sodipodi:docname="New document 2">
  <defs
     id="defs2987" />
  <sodipodi:namedview
     id="base"
     pagecolor="#ffffff"
     bordercolor="#666666"
     borderopacity="1.0"
     inkscape:pageopacity="0.0"
     inkscape:pageshadow="2"
     inkscape:zoom="4.686654"
     inkscape:cx="-2.9061576"
     inkscape:cy="39.149432"
     inkscape:current-layer="layer1"
     showgrid="true"
     inkscape:document-units="px"
     inkscape:grid-bbox="true"
     showguides="true"
     inkscape:guide-bbox="true"
     inkscape:window-width="1366"
     inkscape:window-height="744"
     inkscape:window-x="0"
     inkscape:window-y="24"
     inkscape:window-maximized="1" />
  <metadata
     id="metadata2990">
    <rdf:RDF>
      <cc:Work
         rdf:about="">
        <dc:format>image/svg+xml</dc:format>
        <dc:type
           rdf:resource="http://purl.org/dc/dcmitype/StillImage" />
        <dc:title></dc:title>
      </cc:Work>
    </rdf:RDF>
  </metadata>
  <g
     id="layer1"
     inkscape:label="Layer 1"
     inkscape:groupmode="layer">
    <path
       style="fill:#ffffff;fill-opacity:1;stroke:#000000;stroke-width:1;stroke-linejoin:miter;stroke-miterlimit:4;stroke-opacity:1;stroke-dasharray:none;stroke-dashoffset:0"
       d="m 24.916573,9.0205034 c -3.541393,0 -6.4375,2.8648566 -6.4375,6.4062496 0,1.694464 0.67653,3.228579 1.75,4.375 l -4.21875,0 c 1.030609,-1.137801 1.65625,-2.656414 1.65625,-4.3125 0,-3.541393 -2.864857,-6.4062496 -6.40625,-6.4062496 -3.541393,0 -6.40625,2.8648566 -6.40625,6.4062496 0,1.660028 0.621267,3.173765 1.65625,4.3125 l -2.28125,0 0,12.5 12.21875,0 -8.46875,28.96875 2.875,0 7.625,-26.0625 7.625,26.15625 2.84375,0 -8.46875,-29.0625 11.84375,0 0,-4.3125 7,1.53125 0,-8.3125 -7,1.375 0,-2.78125 -2.75,0 c 1.078973,-1.147443 1.75,-2.675648 1.75,-4.375 0,-3.541393 -2.864857,-6.4062496 -6.40625,-6.4062496 z"
       id="path2993"
       inkscape:connector-curvature="0" />
    <path
       style="fill:#000000;fill-opacity:1;stroke:none"
       d="m 17.049065,23.414174 0,4.828054 4.826483,-2.564904 z"
       id="path3068"
       inkscape:connector-curvature="0" />
    <path
       style="fill:none;stroke:#000000;stroke-width:0.5;stroke-linecap:butt;stroke-linejoin:miter;stroke-opacity:1;stroke-miterlimit:4;stroke-dasharray:none"
       d="M 41.641963,20.849271 60.954177,15.87034"
       id="path3838"
       inkscape:connector-curvature="0" />
    <path
       style="fill:none;stroke:#000000;stroke-width:0.5;stroke-linecap:butt;stroke-linejoin:miter;stroke-opacity:1;stroke-miterlimit:4;stroke-dasharray:none"
       d="m 42.094593,29.750995 18.859584,3.62104"
       id="path3840"
       inkscape:connector-curvature="0" />
  </g>
</svg>
