<?xml version="1.0" encoding="UTF-8" standalone="no"?>
<!-- Created with Inkscape (http://www.inkscape.org/) -->

<svg
   xmlns:dc="http://purl.org/dc/elements/1.1/"
   xmlns:cc="http://creativecommons.org/ns#"
   xmlns:rdf="http://www.w3.org/1999/02/22-rdf-syntax-ns#"
   xmlns:svg="http://www.w3.org/2000/svg"
   xmlns="http://www.w3.org/2000/svg"
   xmlns:sodipodi="http://sodipodi.sourceforge.net/DTD/sodipodi-0.dtd"
   xmlns:inkscape="http://www.inkscape.org/namespaces/inkscape"
   width="64px"
   height="64px"
   id="svg2985"
   version="1.1"
   inkscape:version="0.48.4 r9939"
   sodipodi:docname="hobby-sports.svg">
  <defs
     id="defs2987" />
  <sodipodi:namedview
     id="base"
     pagecolor="#ffffff"
     bordercolor="#666666"
     borderopacity="1.0"
     inkscape:pageopacity="0.0"
     inkscape:pageshadow="2"
     inkscape:zoom="4"
     inkscape:cx="-4.8997095"
     inkscape:cy="35.788708"
     inkscape:current-layer="layer1"
     showgrid="false"
     inkscape:document-units="px"
     inkscape:grid-bbox="true"
     inkscape:window-width="1366"
     inkscape:window-height="744"
     inkscape:window-x="0"
     inkscape:window-y="24"
     inkscape:window-maximized="1">
    <inkscape:grid
       type="xygrid"
       id="grid4372" />
  </sodipodi:namedview>
  <metadata
     id="metadata2990">
    <rdf:RDF>
      <cc:Work
         rdf:about="">
        <dc:format>image/svg+xml</dc:format>
        <dc:type
           rdf:resource="http://purl.org/dc/dcmitype/StillImage" />
        <dc:title></dc:title>
      </cc:Work>
    </rdf:RDF>
  </metadata>
  <g
     id="layer1"
     inkscape:label="Layer 1"
     inkscape:groupmode="layer">
    <g
       id="g4189"
       transform="matrix(1.2994238,0,0,1.2994238,-9.0055656,0.02357855)">
      <path
         transform="matrix(0.55583774,0,0,0.55583774,13.759665,2.579916)"
         d="m 26.403419,21.301901 c 0,7.749401 -6.282131,14.031531 -14.031532,14.031531 -7.7494006,0 -14.0315311,-6.28213 -14.0315311,-14.031531 0,-7.749401 6.2821305,-14.0315315 14.0315311,-14.0315315 7.749401,0 14.031532,6.2821305 14.031532,14.0315315 z"
         sodipodi:ry="14.031531"
         sodipodi:rx="14.031531"
         sodipodi:cy="21.301901"
         sodipodi:cx="12.371887"
         id="path2993"
         style="fill:#ffffff;fill-opacity:1;stroke:#000000;stroke-width:1.1782068;stroke-miterlimit:4;stroke-opacity:1;stroke-dasharray:none"
         sodipodi:type="arc" />
      <path
         inkscape:connector-curvature="0"
         id="path3765"
         d="m 13.060134,14.463157 15.269765,0"
         style="fill:none;stroke:#000000;stroke-width:0.65489179;stroke-linecap:butt;stroke-linejoin:miter;stroke-miterlimit:4;stroke-opacity:1;stroke-dasharray:none" />
      <path
         inkscape:connector-curvature="0"
         id="path3773"
         d="m 20.72029,6.6210619 0,15.5146461"
         style="fill:none;stroke:#000000;stroke-width:0.65489179;stroke-linecap:butt;stroke-linejoin:miter;stroke-miterlimit:4;stroke-opacity:1;stroke-dasharray:none" />
      <path
         sodipodi:nodetypes="ccc"
         inkscape:connector-curvature="0"
         id="path3775"
         d="m 15.227266,8.7176359 c 3.95102,2.6031551 3.796026,4.1596811 3.83059,5.7645241 0.136151,2.991556 -1.900342,4.120845 -3.923754,5.261347"
         style="fill:none;stroke:#000000;stroke-width:0.65489179;stroke-linecap:butt;stroke-linejoin:miter;stroke-miterlimit:4;stroke-opacity:1;stroke-dasharray:none" />
      <path
         sodipodi:nodetypes="ccc"
         inkscape:connector-curvature="0"
         id="path3777"
         d="m 26.256117,9.0293975 c -3.114027,1.7587175 -4.150443,3.5681085 -4.028837,5.4057435 -0.130248,1.941124 1.030372,3.783422 3.981818,5.4875"
         style="fill:none;stroke:#000000;stroke-width:0.65489179;stroke-linecap:butt;stroke-linejoin:miter;stroke-miterlimit:4;stroke-opacity:1;stroke-dasharray:none" />
    </g>
    <g
       id="g4199"
       transform="matrix(1.2994238,0,0,1.2994238,-3.0267266,0.43924706)">
      <path
         transform="matrix(0.65420561,0,0,0.65420561,1.0759346,13.350468)"
         d="M 29,34.8125 C 29,38.229762 26.229762,41 22.8125,41 19.395238,41 16.625,38.229762 16.625,34.8125 c 0,-3.417262 2.770238,-6.1875 6.1875,-6.1875 3.417262,0 6.1875,2.770238 6.1875,6.1875 z"
         sodipodi:ry="6.1875"
         sodipodi:rx="6.1875"
         sodipodi:cy="34.8125"
         sodipodi:cx="22.8125"
         id="path4042"
         style="fill:#ffffff;fill-opacity:1;stroke:#000000;stroke-width:0.7695719;stroke-linejoin:miter;stroke-miterlimit:4;stroke-opacity:1;stroke-dasharray:none;stroke-dashoffset:0"
         sodipodi:type="arc" />
      <path
         sodipodi:nodetypes="ccc"
         inkscape:connector-curvature="0"
         id="path4050"
         d="m 12.56542,33.957944 c 0,0 2.003505,0.613318 2.207944,2.412383 0.367991,2.003505 -0.776869,3.189253 -0.776869,3.189253"
         style="fill:none;stroke:#000000;stroke-width:0.25172913;stroke-linecap:butt;stroke-linejoin:miter;stroke-miterlimit:4;stroke-opacity:1;stroke-dasharray:0.50345825, 0.25172912;stroke-dashoffset:0" />
      <path
         sodipodi:nodetypes="ccc"
         inkscape:connector-curvature="0"
         id="path4052"
         d="m 17.921729,32.608645 c 0,0 -1.71729,1.676402 -1.103972,3.311916 0.490654,1.839953 2.453271,2.371495 2.453271,2.371495"
         style="fill:none;stroke:#000000;stroke-width:0.25172913;stroke-linecap:butt;stroke-linejoin:miter;stroke-miterlimit:4;stroke-opacity:1;stroke-dasharray:0.50345825, 0.25172912;stroke-dashoffset:0" />
    </g>
    <g
       id="g4211"
       transform="matrix(1.2994238,0,0,1.2994238,-17.048585,18.269648)">
      <path
         sodipodi:nodetypes="ccc"
         inkscape:connector-curvature="0"
         id="path4074"
         d="m 37.268083,21.905646 c 5.9375,-7.6875 15.8125,-7.4375 21.875,0.5 -6.1875,7.625 -16.75,7.0625 -21.875,-0.5 z"
         style="fill:#ffffff;fill-opacity:1;stroke:#000000;stroke-width:0.7695719px;stroke-linecap:butt;stroke-linejoin:miter;stroke-opacity:1" />
      <path
         inkscape:connector-curvature="0"
         id="rect4092"
         d="m 45.756059,20.475729 0,0.9375 -0.71875,0 0,-0.875 -0.78125,0 0,0.875 -0.875,0 0,-0.90625 -0.78125,0 0,0.90625 -0.6875,0 0,0.71875 0.6875,0 0,0.9375 0.78125,0 0,-0.9375 0.875,0 0,0.96875 0.78125,0 0,-0.96875 0.71875,0 0,0.90625 0.8125,0 0,-0.90625 0.84375,0 0,0.9375 0.8125,0 0,-0.9375 0.75,0 0,0.96875 0.8125,0 0,-0.96875 0.84375,0 0,1 0.8125,0 0,-1 0.71875,0 0,0.9375 0.8125,0 0,-0.9375 0.78125,0 0,-0.71875 -0.78125,0 0,-0.90625 -0.8125,0 0,0.90625 -0.71875,0 0,-0.84375 -0.8125,0 0,0.84375 -0.84375,0 0,-0.875 -0.8125,0 0,0.875 -0.75,0 0,-0.90625 -0.8125,0 0,0.90625 -0.84375,0 0,-0.9375 -0.8125,0 z"
         style="fill:none;stroke:#000000;stroke-width:0.38904002;stroke-linejoin:miter;stroke-miterlimit:4;stroke-opacity:1;stroke-dasharray:none;stroke-dashoffset:0" />
      <path
         sodipodi:nodetypes="cc"
         inkscape:connector-curvature="0"
         id="path4169"
         d="m 39.6875,19.625 c 1.625,2.5625 -0.3125,4.8125 -0.3125,4.8125"
         style="fill:none;stroke:#000000;stroke-width:0.7695719px;stroke-linecap:butt;stroke-linejoin:miter;stroke-opacity:1" />
      <path
         sodipodi:nodetypes="cc"
         inkscape:connector-curvature="0"
         id="path4171"
         d="m 56.875,19.9375 c -1.90625,1.34375 -1.125,5.1875 -0.375,5.25"
         style="fill:none;stroke:#000000;stroke-width:0.7695719px;stroke-linecap:butt;stroke-linejoin:miter;stroke-opacity:1" />
    </g>
    <g
       id="g4358"
       transform="matrix(1.2994238,0,0,1.2994238,-7.0402967,-36.387003)">
      <path
         transform="matrix(0.65605095,0,0,0.65605095,11.651274,12.55414)"
         d="m 53.5,46.3125 c 0,5.419294 -4.393206,9.8125 -9.8125,9.8125 -5.419294,0 -9.8125,-4.393206 -9.8125,-9.8125 0,-5.419294 4.393206,-9.8125 9.8125,-9.8125 5.419294,0 9.8125,4.393206 9.8125,9.8125 z"
         sodipodi:ry="9.8125"
         sodipodi:rx="9.8125"
         sodipodi:cy="46.3125"
         sodipodi:cx="43.6875"
         id="path4219"
         style="fill:#ffffff;fill-opacity:1;stroke:#000000;stroke-width:1.17303681;stroke-linejoin:miter;stroke-miterlimit:4;stroke-opacity:1;stroke-dasharray:none;stroke-dashoffset:0"
         sodipodi:type="arc" />
      <path
         transform="matrix(0.71677214,0,0,0.71677214,12.136038,12.158032)"
         inkscape:transform-center-y="-0.18970127"
         inkscape:transform-center-x="0.073682719"
         d="m 42,45.625 -4.461745,0.391065 -1.75068,-4.122526 3.379765,-2.938926 3.83949,2.30617 z"
         inkscape:randomized="0"
         inkscape:rounded="0"
         inkscape:flatsided="true"
         sodipodi:arg2="1.4833713"
         sodipodi:arg1="0.85505274"
         sodipodi:r2="1.9049689"
         sodipodi:r1="3.8099377"
         sodipodi:cy="42.75"
         sodipodi:cx="39.5"
         sodipodi:sides="5"
         id="path4225"
         style="fill:#000000;fill-opacity:1;stroke:none"
         sodipodi:type="star" />
      <path
         sodipodi:nodetypes="cc"
         inkscape:connector-curvature="0"
         id="path4233"
         d="M 40.265625,40.835937 40,36.5625"
         style="fill:none;stroke:#000000;stroke-width:0.15391438;stroke-linecap:butt;stroke-linejoin:miter;stroke-miterlimit:4;stroke-opacity:1;stroke-dasharray:none" />
      <path
         sodipodi:nodetypes="cccc"
         inkscape:connector-curvature="0"
         id="path4235"
         d="m 32.579384,46.054484 -6.831552,-0.740513 8.822774,-5.062818 z"
         inkscape:transform-center-y="0.198213"
         inkscape:transform-center-x="-0.12740274"
         style="fill:#000000;fill-opacity:1;stroke:none"
         transform="matrix(0.31461431,0.173649,-0.173649,0.31461431,37.843815,17.995522)" />
      <path
         sodipodi:nodetypes="cc"
         inkscape:connector-curvature="0"
         id="path4233-0"
         d="m 40.93233,42.727888 3.906503,-1.75273"
         style="fill:none;stroke:#000000;stroke-width:0.15391438;stroke-linecap:butt;stroke-linejoin:miter;stroke-miterlimit:4;stroke-opacity:1;stroke-dasharray:none" />
      <path
         sodipodi:nodetypes="cccc"
         inkscape:connector-curvature="0"
         id="path4235-5"
         d="m 44.676408,41.063487 0.498235,-2.418548 1.509772,3.329076 z"
         inkscape:transform-center-y="-0.0865685"
         inkscape:transform-center-x="-0.27077524"
         style="fill:#000000;fill-opacity:1;stroke:none" />
      <path
         sodipodi:nodetypes="cc"
         inkscape:connector-curvature="0"
         id="path4233-0-2"
         d="m 40.676076,43.299962 3.070716,2.983879"
         style="fill:none;stroke:#000000;stroke-width:0.15391438;stroke-linecap:butt;stroke-linejoin:miter;stroke-miterlimit:4;stroke-opacity:1;stroke-dasharray:none" />
      <path
         sodipodi:nodetypes="cccc"
         inkscape:connector-curvature="0"
         id="path4235-5-9"
         d="m 43.604754,46.16548 2.431693,-0.429514 -2.536878,2.631807 z"
         inkscape:transform-center-y="0.4512443"
         inkscape:transform-center-x="-0.27232713"
         style="fill:#000000;fill-opacity:1;stroke:none" />
      <path
         sodipodi:nodetypes="cc"
         inkscape:connector-curvature="0"
         id="path4233-0-2-0"
         d="M 39.871719,42.741012 35.722831,41.68292"
         style="fill:none;stroke:#000000;stroke-width:0.15391438;stroke-linecap:butt;stroke-linejoin:miter;stroke-miterlimit:4;stroke-opacity:1;stroke-dasharray:none" />
      <path
         sodipodi:nodetypes="cccc"
         inkscape:connector-curvature="0"
         id="path4235-5-9-1"
         d="m 35.904949,41.714815 -1.894717,1.583559 0.889075,-3.545661 z"
         inkscape:transform-center-y="-0.25566268"
         inkscape:transform-center-x="-0.041931021"
         style="fill:#000000;fill-opacity:1;stroke:none" />
      <path
         inkscape:transform-center-y="-1.335039"
         inkscape:transform-center-x="0.086819"
         sodipodi:nodetypes="cc"
         inkscape:connector-curvature="0"
         id="path4233-0-2-4"
         d="m 40.199573,43.433831 -2.40268,3.544003"
         style="fill:none;stroke:#000000;stroke-width:0.15391438;stroke-linecap:butt;stroke-linejoin:miter;stroke-miterlimit:4;stroke-opacity:1;stroke-dasharray:none" />
      <path
         sodipodi:nodetypes="cccc"
         inkscape:connector-curvature="0"
         id="path4235-5-9-11"
         d="m 37.888671,46.817332 0.846979,2.319535 -3.03387,-2.039068 z"
         inkscape:transform-center-y="1.436228"
         inkscape:transform-center-x="1.866337"
         style="fill:#000000;fill-opacity:1;stroke:none" />
    </g>
  </g>
</svg>
