<?xml version="1.0" encoding="UTF-8" standalone="no"?>
<!-- Created with Inkscape (http://www.inkscape.org/) -->

<svg
   xmlns:dc="http://purl.org/dc/elements/1.1/"
   xmlns:cc="http://creativecommons.org/ns#"
   xmlns:rdf="http://www.w3.org/1999/02/22-rdf-syntax-ns#"
   xmlns:svg="http://www.w3.org/2000/svg"
   xmlns="http://www.w3.org/2000/svg"
   xmlns:sodipodi="http://sodipodi.sourceforge.net/DTD/sodipodi-0.dtd"
   xmlns:inkscape="http://www.inkscape.org/namespaces/inkscape"
   width="64px"
   height="64px"
   id="svg2985"
   version="1.1"
   inkscape:version="0.48.4 r9939"
   sodipodi:docname="New document 2">
  <defs
     id="defs2987" />
  <sodipodi:namedview
     id="base"
     pagecolor="#ffffff"
     bordercolor="#666666"
     borderopacity="1.0"
     inkscape:pageopacity="0.0"
     inkscape:pageshadow="2"
     inkscape:zoom="6.6279297"
     inkscape:cx="31.081869"
     inkscape:cy="27.720621"
     inkscape:current-layer="layer1"
     showgrid="true"
     inkscape:document-units="px"
     inkscape:grid-bbox="true"
     inkscape:window-width="1366"
     inkscape:window-height="744"
     inkscape:window-x="0"
     inkscape:window-y="24"
     inkscape:window-maximized="1" />
  <metadata
     id="metadata2990">
    <rdf:RDF>
      <cc:Work
         rdf:about="">
        <dc:format>image/svg+xml</dc:format>
        <dc:type
           rdf:resource="http://purl.org/dc/dcmitype/StillImage" />
        <dc:title></dc:title>
      </cc:Work>
    </rdf:RDF>
  </metadata>
  <g
     id="layer1"
     inkscape:label="Layer 1"
     inkscape:groupmode="layer">
    <rect
       style="fill:#ffffff;fill-opacity:1;stroke:#000000;stroke-width:1;stroke-opacity:1"
       id="rect3765"
       width="52.052452"
       height="22.933256"
       x="6.4876976"
       y="20.245766" />
    <path
       style="fill:#ffffff;fill-opacity:1;stroke:#000000;stroke-width:1;stroke-linejoin:miter;stroke-miterlimit:4;stroke-opacity:1;stroke-dasharray:none;stroke-dashoffset:0"
       d="m 14.185176,25.369061 0,4.723516 -4.4488926,0 0,4.091883 4.4488926,0 0,4.311581 4.091882,0 0,-4.311581 4.586205,0 0,-4.091883 -4.586205,0 0,-4.723516 -4.091882,0 z"
       id="rect3767"
       inkscape:connector-curvature="0" />
    <rect
       style="fill:#ffffff;fill-opacity:1;stroke:#000000;stroke-width:1;stroke-linejoin:miter;stroke-miterlimit:4;stroke-opacity:1;stroke-dasharray:none;stroke-dashoffset:0"
       id="rect3788"
       width="4.1607509"
       height="1.6002889"
       x="27.025007"
       y="33.915871" />
    <rect
       style="fill:#ffffff;fill-opacity:1;stroke:#000000;stroke-width:1;stroke-linejoin:miter;stroke-miterlimit:4;stroke-opacity:1;stroke-dasharray:none;stroke-dashoffset:0"
       id="rect3788-3"
       width="4.1607509"
       height="1.6002889"
       x="33.692875"
       y="33.862526" />
    <path
       sodipodi:type="arc"
       style="fill:#ffffff;fill-opacity:1;stroke:#000000;stroke-width:1.09956086;stroke-linejoin:miter;stroke-miterlimit:4;stroke-opacity:1;stroke-dasharray:none;stroke-dashoffset:0"
       id="path3808"
       sodipodi:cx="49.822327"
       sodipodi:cy="25.059639"
       sodipodi:rx="2.560462"
       sodipodi:ry="2.560462"
       d="m 52.382789,25.059639 a 2.560462,2.560462 0 1 1 -5.120924,0 2.560462,2.560462 0 1 1 5.120924,0 z"
       transform="matrix(0.62173542,0.6637391,-0.66376304,0.621713,33.989532,-12.925562)" />
    <path
       sodipodi:type="arc"
       style="fill:#ffffff;fill-opacity:1;stroke:#000000;stroke-width:1.09956086;stroke-linejoin:miter;stroke-miterlimit:4;stroke-opacity:1;stroke-dasharray:none;stroke-dashoffset:0"
       id="path3810"
       sodipodi:cx="46.781776"
       sodipodi:cy="32.687683"
       sodipodi:rx="2.5071192"
       sodipodi:ry="2.5071192"
       d="m 49.288896,32.687683 a 2.5071192,2.5071192 0 1 1 -5.014239,0 2.5071192,2.5071192 0 1 1 5.014239,0 z"
       transform="matrix(0.62173542,0.6637391,-0.66376304,0.621713,36.291031,-20.398782)" />
    <path
       sodipodi:type="arc"
       style="fill:#ffffff;fill-opacity:1;stroke:#000000;stroke-width:1.09956086;stroke-linejoin:miter;stroke-miterlimit:4;stroke-opacity:1;stroke-dasharray:none;stroke-dashoffset:0"
       id="path3808-9"
       sodipodi:cx="49.822327"
       sodipodi:cy="25.059639"
       sodipodi:rx="2.560462"
       sodipodi:ry="2.560462"
       d="m 52.382789,25.059639 a 2.560462,2.560462 0 1 1 -5.120924,0 2.560462,2.560462 0 1 1 5.120924,0 z"
       transform="matrix(0.62173542,0.6637391,-0.66376304,0.621713,38.661683,-17.418714)" />
    <path
       sodipodi:type="arc"
       style="fill:#ffffff;fill-opacity:1;stroke:#000000;stroke-width:1.09956086;stroke-linejoin:miter;stroke-miterlimit:4;stroke-opacity:1;stroke-dasharray:none;stroke-dashoffset:0"
       id="path3810-0"
       sodipodi:cx="46.781776"
       sodipodi:cy="32.687683"
       sodipodi:rx="2.5071192"
       sodipodi:ry="2.5071192"
       d="m 49.288896,32.687683 a 2.5071192,2.5071192 0 1 1 -5.014239,0 2.5071192,2.5071192 0 1 1 5.014239,0 z"
       transform="matrix(0.62173542,0.6637391,-0.66376304,0.621713,41.031788,-24.891934)" />
  </g>
</svg>
