<?xml version="1.0" encoding="UTF-8" standalone="no"?>
<!-- Created with Inkscape (http://www.inkscape.org/) -->

<svg
   xmlns:dc="http://purl.org/dc/elements/1.1/"
   xmlns:cc="http://creativecommons.org/ns#"
   xmlns:rdf="http://www.w3.org/1999/02/22-rdf-syntax-ns#"
   xmlns:svg="http://www.w3.org/2000/svg"
   xmlns="http://www.w3.org/2000/svg"
   xmlns:sodipodi="http://sodipodi.sourceforge.net/DTD/sodipodi-0.dtd"
   xmlns:inkscape="http://www.inkscape.org/namespaces/inkscape"
   width="64px"
   height="64px"
   id="svg2985"
   version="1.1"
   inkscape:version="0.48.4 r9939"
   sodipodi:docname="New document 2">
  <defs
     id="defs2987" />
  <sodipodi:namedview
     id="base"
     pagecolor="#ffffff"
     bordercolor="#666666"
     borderopacity="1.0"
     inkscape:pageopacity="0.0"
     inkscape:pageshadow="2"
     inkscape:zoom="4.686654"
     inkscape:cx="40.613725"
     inkscape:cy="24.927752"
     inkscape:current-layer="layer1"
     showgrid="true"
     inkscape:document-units="px"
     inkscape:grid-bbox="true"
     inkscape:window-width="1366"
     inkscape:window-height="744"
     inkscape:window-x="0"
     inkscape:window-y="24"
     inkscape:window-maximized="1" />
  <metadata
     id="metadata2990">
    <rdf:RDF>
      <cc:Work
         rdf:about="">
        <dc:format>image/svg+xml</dc:format>
        <dc:type
           rdf:resource="http://purl.org/dc/dcmitype/StillImage" />
        <dc:title></dc:title>
      </cc:Work>
    </rdf:RDF>
  </metadata>
  <g
     id="layer1"
     inkscape:label="Layer 1"
     inkscape:groupmode="layer">
    <path
       style="fill:#ffffff;stroke:#000000;stroke-width:1px;stroke-linecap:butt;stroke-linejoin:miter;stroke-opacity:1"
       d="m 47.034165,24.09312 c 0,0.274516 -2.332171,7.823725 -2.332171,7.823725 l 1.646238,0.205888 -0.754526,4.735413 5.007452,-0.219507 -0.274516,3.376449 -6.996514,1.990246 -5.761836,10.980668 24.624988,-0.06863 -1.448316,-11.369989 -3.970553,-1.806812 -0.32853,-3.997269 2.043362,-10.826633 z"
       id="path3829"
       inkscape:connector-curvature="0"
       sodipodi:nodetypes="cccccccccccccc" />
    <path
       style="fill:#ffffff;stroke:#000000;stroke-width:0.99999994px;stroke-linecap:butt;stroke-linejoin:miter;stroke-opacity:1"
       d="m 15.817869,19.776057 1.871329,8.848202 -1.603996,0.62563 0.801998,4.200661 -3.742656,2.055643 0.623776,4.290038 6.237759,2.055643 3.118879,10.725092 L 2.641262,52.740463 2.8076898,43.103134 6.9958984,39.259976 3.520576,23.708591 z"
       id="path3003"
       inkscape:connector-curvature="0"
       sodipodi:nodetypes="ccccccccccccc" />
    <path
       style="fill:#ffffff;stroke:#000000;stroke-width:0.5;stroke-linecap:butt;stroke-linejoin:miter;stroke-miterlimit:4;stroke-opacity:1;stroke-dasharray:none"
       d="m 16.112547,31.311283 c 0,0 -2.789781,0.619879 -4.750218,-0.0058"
       id="path3041"
       inkscape:connector-curvature="0"
       sodipodi:nodetypes="cc" />
    <path
       style="fill:#ffffff;stroke:#000000;stroke-width:0.99999994px;stroke-linecap:butt;stroke-linejoin:miter;stroke-opacity:1"
       d="m 29.361529,18.015321 -3.764055,10.084946 2.105319,0.51063 -0.318988,6.510535 4.465829,0.51063 -0.893165,3.957384 -9.423903,3.783264 -2.832741,9.661926 31.421559,-0.02832 -3.725906,-9.076516 -7.272922,-3.702068 -0.382785,-5.233959 3.189878,-13.148727 z"
       id="path2995"
       inkscape:connector-curvature="0"
       sodipodi:nodetypes="cccccccccccccc" />
    <path
       sodipodi:type="arc"
       style="fill:#000000;fill-opacity:1;stroke:none"
       id="path2999"
       sodipodi:cx="33.343746"
       sodipodi:cy="32.542213"
       sodipodi:rx="1.3578901"
       sodipodi:ry="1.3578901"
       d="m 34.701636,32.542213 a 1.3578901,1.3578901 0 1 1 -2.71578,0 1.3578901,1.3578901 0 1 1 2.71578,0 z"
       transform="matrix(0.41391362,0,0,0.41411611,16.289087,13.494526)" />
    <path
       style="fill:none;stroke:#000000;stroke-width:0.5;stroke-linecap:butt;stroke-linejoin:miter;stroke-miterlimit:4;stroke-opacity:1;stroke-dasharray:none"
       d="m 28.040912,31.778278 c 0,0 2.864592,0.446802 4.330723,-1.223147"
       id="path3001"
       inkscape:connector-curvature="0"
       sodipodi:nodetypes="cc" />
    <path
       sodipodi:type="arc"
       style="fill:#000000;fill-opacity:1;stroke:none"
       id="path2999-2"
       sodipodi:cx="33.343746"
       sodipodi:cy="32.542213"
       sodipodi:rx="1.3578901"
       sodipodi:ry="1.3578901"
       d="m 34.701636,32.542213 a 1.3578901,1.3578901 0 1 1 -2.71578,0 1.3578901,1.3578901 0 1 1 2.71578,0 z"
       transform="matrix(0.41391362,0,0,0.41411611,-0.14709151,13.181768)" />
    <path
       sodipodi:type="arc"
       style="fill:#000000;fill-opacity:1;stroke:none"
       id="path2999-8"
       sodipodi:cx="33.343746"
       sodipodi:cy="32.542213"
       sodipodi:rx="1.3578901"
       sodipodi:ry="1.3578901"
       d="m 34.701636,32.542213 a 1.3578901,1.3578901 0 1 1 -2.71578,0 1.3578901,1.3578901 0 1 1 2.71578,0 z"
       transform="matrix(0.41391362,0,0,0.41411611,35.082612,16.425617)" />
    <path
       style="fill:none;stroke:#000000;stroke-width:0.5;stroke-linecap:butt;stroke-linejoin:miter;stroke-miterlimit:4;stroke-opacity:1;stroke-dasharray:none"
       d="m 46.039736,34.710847 c 0,0 2.864592,0.446802 4.330723,-1.223147"
       id="path3001-2"
       inkscape:connector-curvature="0"
       sodipodi:nodetypes="cc" />
  </g>
</svg>
