<?xml version="1.0" encoding="UTF-8" standalone="no"?>
<!-- Created with Inkscape (http://www.inkscape.org/) -->

<svg
   xmlns:dc="http://purl.org/dc/elements/1.1/"
   xmlns:cc="http://creativecommons.org/ns#"
   xmlns:rdf="http://www.w3.org/1999/02/22-rdf-syntax-ns#"
   xmlns:svg="http://www.w3.org/2000/svg"
   xmlns="http://www.w3.org/2000/svg"
   xmlns:sodipodi="http://sodipodi.sourceforge.net/DTD/sodipodi-0.dtd"
   xmlns:inkscape="http://www.inkscape.org/namespaces/inkscape"
   width="64px"
   height="64px"
   id="svg3848"
   version="1.1"
   inkscape:version="0.48.4 r9939"
   sodipodi:docname="New document 7">
  <defs
     id="defs3850" />
  <sodipodi:namedview
     id="base"
     pagecolor="#ffffff"
     bordercolor="#666666"
     borderopacity="1.0"
     inkscape:pageopacity="0.0"
     inkscape:pageshadow="2"
     inkscape:zoom="6.6279297"
     inkscape:cx="6.7744022"
     inkscape:cy="29.894001"
     inkscape:current-layer="g4430"
     showgrid="true"
     inkscape:document-units="px"
     inkscape:grid-bbox="true"
     showguides="true"
     inkscape:guide-bbox="true"
     inkscape:window-width="1366"
     inkscape:window-height="744"
     inkscape:window-x="0"
     inkscape:window-y="24"
     inkscape:window-maximized="1" />
  <metadata
     id="metadata3853">
    <rdf:RDF>
      <cc:Work
         rdf:about="">
        <dc:format>image/svg+xml</dc:format>
        <dc:type
           rdf:resource="http://purl.org/dc/dcmitype/StillImage" />
        <dc:title></dc:title>
      </cc:Work>
    </rdf:RDF>
  </metadata>
  <g
     id="layer1"
     inkscape:label="Layer 1"
     inkscape:groupmode="layer">
    <g
       id="g4430"
       transform="matrix(0.93390464,0.35752219,-0.35752219,0.93390464,14.92154,-6.9730599)">
      <g
         id="g4449"
         transform="matrix(0.58735939,1.331244e-4,1.331244e-4,0.58765617,53.859456,-15.747214)">
        <path
           sodipodi:nodetypes="ccccccccccccccccccccccccccccccccccccccccccccccccccc"
           inkscape:connector-curvature="0"
           id="path4443"
           d="m -47.897183,54.195054 -2.77851,-3.459848 -2.743225,1.696395 -2.77523,-5.561315 -1.777815,0.842148 -3.04166,-8.367303 9.986573,-6.407986 6.798568,12.83967 3.061741,2.933674 8.523536,-2.778361 21.632224,-0.04207 -3.521366,14.433998 0.779384,0.34785 -0.851984,4.526583 -3.76812,-0.980789 0.359951,-1.591791 -0.974231,-0.434814 1.163536,-2.868751 0.887268,0.62966 0.924586,-9.401019 -14.779586,2.750014 11.617978,22.624646 13.732858,15.548827 17.736521,12.912018 3.088123,3.9157 -11.6598439,4.81858 -1.7294168,-2.40748 5.2826568,-3.45514 -17.0114104,-10.194684 -14.3833487,-10.715261 -4.581427,20.260185 14.498637,8.35347 3.006886,4.25093 -12.197827,4.84099 -1.762313,-2.06702 5.391137,-4.12011 -16.309471,-8.43571 0.329768,-24.80131 -10.089979,-17.30212 -0.372828,10.949839 3.72054,13.268429 1.754183,-0.228457 0.802285,4.693919 -4.441246,1.769522 -0.867362,-2.78698 -1.626354,0.490005 -0.125794,-2.330026 2.001344,-0.915017 -4.913243,-11.46158 -3.393361,-20.378137 z"
           style="fill:#ffffff;stroke:#000000;stroke-width:1.70210516px;stroke-linecap:butt;stroke-linejoin:miter;stroke-opacity:1" />
        <path
           transform="matrix(1.2785546,-0.48946286,0.48946286,1.2785546,-89.501925,41.326458)"
           d="m 23.913954,10.702814 a 0.64122587,0.64122587 0 1 1 -1.282452,0 0.64122587,0.64122587 0 1 1 1.282452,0 z"
           sodipodi:ry="0.64122587"
           sodipodi:rx="0.64122587"
           sodipodi:cy="10.702814"
           sodipodi:cx="23.272728"
           id="path4447"
           style="fill:#000000;fill-opacity:1;stroke:none"
           sodipodi:type="arc" />
      </g>
      <g
         id="g4453"
         transform="matrix(0.99989023,-0.01481581,0.01481581,0.99989023,-91.608171,88.231252)">
        <path
           style="fill:#ffffff;fill-opacity:1;stroke:#000000;stroke-width:1px;stroke-linecap:butt;stroke-linejoin:miter;stroke-opacity:1"
           d="m 137.34798,-63.63666 -1.44979,-0.346046 -24.28408,31.035276 -4.0166,-2.9062 -0.93539,1.294496 9.55057,6.910301 0.58018,0.419785 0.98915,-1.368894 -4.8943,-3.54126 z m -20.81208,36.221682 -9.66493,-6.90241 -2.26421,2.174661 10.35456,7.546723 z"
           id="path3858"
           inkscape:connector-curvature="0"
           sodipodi:nodetypes="ccccccccccccccc" />
        <path
           style="fill:none;stroke:#000000;stroke-width:0.69999999;stroke-linecap:butt;stroke-linejoin:miter;stroke-miterlimit:4;stroke-opacity:1;stroke-dasharray:none"
           d="m 107.11036,-33.175579 -1.21784,1.685393"
           id="path4373"
           inkscape:connector-curvature="0" />
        <path
           style="fill:none;stroke:#000000;stroke-width:0.69999999;stroke-linecap:butt;stroke-linejoin:miter;stroke-miterlimit:4;stroke-opacity:1;stroke-dasharray:none"
           d="m 108.04407,-32.499998 -1.21785,1.685394"
           id="path4375"
           inkscape:connector-curvature="0" />
        <path
           style="fill:none;stroke:#000000;stroke-width:0.69999999;stroke-linecap:butt;stroke-linejoin:miter;stroke-miterlimit:4;stroke-opacity:1;stroke-dasharray:none"
           d="m 108.93173,-31.853943 -1.21785,1.685395"
           id="path4377"
           inkscape:connector-curvature="0" />
        <path
           style="fill:none;stroke:#000000;stroke-width:0.69999999;stroke-linecap:butt;stroke-linejoin:miter;stroke-miterlimit:4;stroke-opacity:1;stroke-dasharray:none"
           d="m 109.80285,-31.232658 -1.21785,1.685394"
           id="path4373-3"
           inkscape:connector-curvature="0" />
        <path
           style="fill:none;stroke:#000000;stroke-width:0.69999999;stroke-linecap:butt;stroke-linejoin:miter;stroke-miterlimit:4;stroke-opacity:1;stroke-dasharray:none"
           d="m 110.73655,-30.557077 -1.21784,1.685394"
           id="path4375-7"
           inkscape:connector-curvature="0" />
        <path
           style="fill:none;stroke:#000000;stroke-width:0.69999999;stroke-linecap:butt;stroke-linejoin:miter;stroke-miterlimit:4;stroke-opacity:1;stroke-dasharray:none"
           d="m 111.62421,-29.911021 -1.21785,1.685393"
           id="path4377-3"
           inkscape:connector-curvature="0" />
        <path
           style="fill:none;stroke:#000000;stroke-width:0.69999999;stroke-linecap:butt;stroke-linejoin:miter;stroke-miterlimit:4;stroke-opacity:1;stroke-dasharray:none"
           d="m 112.52567,-29.278289 -1.21784,1.685394"
           id="path4377-5"
           inkscape:connector-curvature="0" />
        <path
           style="fill:none;stroke:#000000;stroke-width:0.69999999;stroke-linecap:butt;stroke-linejoin:miter;stroke-miterlimit:4;stroke-opacity:1;stroke-dasharray:none"
           d="m 113.3968,-28.657004 -1.21785,1.685393"
           id="path4373-3-2"
           inkscape:connector-curvature="0" />
        <path
           style="fill:none;stroke:#000000;stroke-width:0.69999999;stroke-linecap:butt;stroke-linejoin:miter;stroke-miterlimit:4;stroke-opacity:1;stroke-dasharray:none"
           d="m 114.33051,-27.981424 -1.21786,1.685394"
           id="path4375-7-1"
           inkscape:connector-curvature="0" />
        <path
           style="fill:none;stroke:#000000;stroke-width:0.69999999;stroke-linecap:butt;stroke-linejoin:miter;stroke-miterlimit:4;stroke-opacity:1;stroke-dasharray:none"
           d="m 115.21816,-27.335368 -1.21785,1.685394"
           id="path4377-3-4"
           inkscape:connector-curvature="0" />
      </g>
    </g>
  </g>
</svg>
